<?xml version="1.0" standalone="no"?>
<!DOCTYPE svg PUBLIC "-//W3C//DTD SVG 20010904//EN"
 "http://www.w3.org/TR/2001/REC-SVG-20010904/DTD/svg10.dtd">
<svg version="1.0" xmlns="http://www.w3.org/2000/svg"
 width="454.000000pt" height="569.000000pt" viewBox="0 0 454.000000 569.000000"
 preserveAspectRatio="xMidYMid meet">

<g transform="translate(0.000000,569.000000) scale(0.100000,-0.100000)"
fill="#000000" stroke="none">
<path d="M1994 5468 c-4 -7 -9 -21 -9 -30 -2 -27 -5 -27 -80 -15 -58 10 -73
10 -85 -1 -41 -38 -138 -102 -160 -107 -52 -12 -109 -87 -79 -106 10 -6 4 -17
-24 -46 -32 -31 -40 -35 -48 -23 -9 13 -10 13 -8 0 4 -37 -1 -41 -35 -35 -19
4 -42 2 -53 -3 -12 -7 -25 -7 -36 -1 -14 8 -15 7 -10 -8 6 -16 5 -16 -10 -4
-10 8 -21 10 -25 6 -4 -4 -2 -10 5 -12 16 -6 4 -34 -24 -56 -13 -10 -23 -24
-23 -31 0 -7 -11 -19 -25 -26 -13 -7 -22 -16 -20 -20 2 -3 -12 -28 -31 -55
-18 -27 -34 -60 -35 -74 0 -14 -4 -35 -8 -46 -8 -19 -8 -19 -19 0 -9 17 -11
13 -8 -22 2 -23 0 -40 -5 -38 -4 3 -15 -5 -23 -17 -14 -20 -19 -21 -48 -10
-22 8 -28 8 -20 0 8 -8 8 -17 1 -31 -8 -14 -8 -18 0 -13 16 10 13 -6 -6 -34
-9 -13 -18 -33 -18 -44 -1 -11 -7 -22 -13 -24 -7 -2 -12 -12 -12 -22 0 -10 -4
-22 -10 -25 -13 -8 -13 -25 -1 -25 5 0 15 16 21 35 13 38 36 50 25 13 -4 -13
-9 -31 -11 -40 -3 -10 -12 -18 -20 -18 -8 0 -14 -6 -14 -13 0 -8 -9 -40 -19
-73 -21 -64 -35 -122 -40 -167 -1 -4 -4 -6 -8 -6 -20 3 -34 -2 -28 -11 6 -10
-7 -14 -32 -11 -15 2 -17 -15 -3 -24 6 -3 10 -18 10 -33 0 -24 -1 -25 -14 -7
-8 11 -12 25 -9 32 3 7 0 13 -6 13 -6 0 -11 -12 -11 -27 0 -19 -3 -24 -9 -15
-7 11 -9 11 -14 -2 -4 -9 -11 -16 -16 -16 -6 0 -8 7 -5 15 4 10 0 15 -10 15
-12 0 -15 -6 -10 -24 3 -13 1 -27 -5 -31 -6 -3 -8 -11 -5 -17 4 -6 1 -14 -6
-18 -11 -7 -11 -13 2 -32 8 -12 18 -38 21 -56 6 -30 5 -32 -9 -17 -9 8 -19 13
-24 10 -12 -7 0 -45 15 -45 7 0 18 -7 25 -15 10 -12 10 -18 0 -30 -8 -9 -8
-15 -2 -15 6 0 12 5 14 11 3 8 13 7 33 -4 17 -9 24 -16 17 -17 -7 0 -10 -4 -7
-10 3 -5 -1 -10 -11 -10 -13 0 -14 3 -4 15 10 12 10 15 -3 15 -19 0 -30 -14
-19 -25 4 -4 7 -15 7 -26 0 -10 5 -18 10 -17 6 2 9 9 7 16 -2 9 4 12 15 10 10
-2 18 -11 18 -20 0 -9 4 -20 8 -24 10 -10 9 -72 -2 -78 -5 -4 -11 0 -14 6 -2
7 -3 -1 -2 -18 1 -17 5 -36 9 -42 4 -7 5 -16 1 -21 -3 -5 -1 -12 5 -16 5 -3
10 0 10 8 0 10 7 13 20 10 11 -3 20 -9 20 -14 0 -5 7 -9 16 -9 12 0 15 -6 10
-26 -5 -19 -3 -25 6 -22 7 3 23 -6 34 -20 l21 -24 5 26 c3 14 1 23 -4 20 -10
-6 -38 20 -38 36 0 6 5 8 11 5 15 -10 59 -13 59 -5 0 4 7 10 14 13 10 4 13 1
10 -7 -3 -7 2 -21 11 -30 15 -14 15 -21 5 -47 -7 -16 -20 -34 -29 -39 -11 -7
-12 -9 -2 -10 7 0 11 -6 7 -15 -3 -8 -2 -15 2 -15 10 0 44 -61 38 -68 -3 -3
-70 -5 -148 -6 -128 -1 -146 1 -171 19 -21 14 -30 16 -36 7 -4 -6 -21 -15 -39
-18 -25 -5 -32 -3 -32 10 0 11 9 16 31 16 27 0 30 2 19 15 -6 8 -21 13 -32 12
-12 -1 -23 4 -25 11 -3 7 4 12 16 12 24 0 27 10 9 28 -10 10 -10 15 1 21 18
12 5 31 -22 31 -13 0 -17 3 -11 8 6 4 16 21 22 37 l10 30 2 -30 c2 -29 2 -29
9 -5 10 38 5 140 -8 153 -6 6 -11 18 -11 26 0 12 3 12 12 3 18 -18 25 -15 30
12 4 19 1 23 -11 19 -11 -4 -9 0 4 10 12 10 29 14 44 10 17 -4 22 -2 19 8 -3
8 -13 13 -22 13 -16 -2 -21 8 -9 19 3 4 12 2 19 -4 15 -13 26 2 10 16 -23 21
-46 14 -46 -14 l0 -26 -19 24 c-10 14 -17 30 -14 37 2 7 -4 14 -14 16 -13 2
-9 7 17 20 26 13 30 18 15 18 -16 0 -17 2 -6 9 12 8 12 12 2 24 -13 16 -17 59
-13 141 2 42 4 47 17 36 12 -10 18 -10 30 0 16 13 11 30 -8 30 -8 0 -8 -3 2
-9 7 -5 9 -11 4 -14 -5 -3 -15 -2 -23 3 -7 4 -19 6 -25 3 -16 -6 -26 46 -14
69 7 14 6 16 -6 12 -11 -5 -15 0 -15 17 0 15 3 19 8 12 5 -8 12 -8 26 3 19 13
19 14 -5 15 -22 1 -23 1 -3 7 21 7 21 8 -7 35 -21 20 -29 24 -29 13 0 -9 7
-16 15 -16 8 0 15 -5 15 -11 0 -5 -4 -8 -8 -5 -5 3 -20 -1 -35 -9 -15 -8 -27
-10 -27 -4 0 5 5 9 10 9 6 0 10 7 10 15 0 8 -4 15 -9 15 -5 0 -11 11 -13 25
-5 22 -2 25 23 25 17 0 29 5 29 13 0 8 3 7 10 -3 14 -22 22 -6 11 21 -5 13
-10 18 -10 11 -1 -7 -5 -10 -11 -7 -5 3 -10 1 -10 -5 0 -7 -7 -10 -15 -6 -8 3
-15 0 -16 -7 0 -7 -7 2 -14 18 -11 24 -14 26 -15 10 -1 -11 -4 -15 -6 -8 -3 6
2 23 11 37 11 16 15 35 11 50 -5 21 -3 24 20 21 14 -1 30 -7 36 -13 12 -12 41
-4 33 9 -3 4 -13 5 -23 2 -15 -6 -15 -5 -3 10 17 21 7 34 -13 18 -8 -7 -23
-11 -33 -8 -17 4 -16 5 2 12 30 13 48 45 25 45 -5 0 -10 -7 -10 -15 0 -23 -53
-19 -68 5 -7 12 -23 25 -35 31 -20 9 -20 9 6 6 17 -3 27 0 27 8 0 7 -11 11
-27 9 -16 -2 -20 -1 -10 2 23 7 22 24 -2 24 -11 0 -22 -8 -24 -17 -4 -14 -5
-13 -6 4 -1 25 23 33 56 18 15 -7 23 -19 23 -37 0 -32 9 -58 20 -58 5 0 15 14
24 30 15 32 4 42 -13 13 -9 -15 -10 -14 -11 9 0 22 4 26 18 22 9 -3 6 2 -8 10
l-25 15 25 2 c14 1 33 3 42 3 10 1 26 9 35 19 15 14 15 17 2 17 -8 0 -19 -4
-24 -9 -6 -5 -33 -11 -62 -14 -59 -7 -78 7 -71 48 4 21 1 25 -18 25 -16 0 -24
6 -24 18 0 14 2 15 10 2 5 -8 10 -10 10 -5 0 20 -18 38 -32 32 -8 -3 -21 -1
-29 4 -10 6 -10 9 -1 9 6 0 12 10 12 22 0 20 -1 20 -18 5 -26 -24 -39 -21 -17
3 26 29 13 35 -17 7 -30 -28 -43 -17 -43 38 0 53 -24 73 -60 49 -28 -18 -25
-34 8 -34 16 0 18 3 9 9 -11 7 -10 9 3 14 9 4 13 3 10 -3 -3 -6 0 -10 7 -10 7
-1 2 -7 -12 -16 -23 -14 -23 -14 -2 -9 13 4 22 2 22 -4 0 -20 -58 -12 -74 10
-8 12 -19 18 -24 15 -6 -3 -13 0 -15 6 -4 10 -6 10 -6 1 -1 -7 -6 -13 -12 -13
-5 0 -8 4 -5 9 3 5 -6 12 -22 16 l-27 8 25 7 c16 4 31 2 41 -7 17 -14 49 -8
49 9 0 6 -7 8 -15 4 -8 -3 -21 4 -30 17 -8 12 -15 16 -15 10 0 -6 -18 -13 -40
-15 -25 -2 -40 1 -40 8 0 13 -32 44 -46 44 -5 0 -3 -4 5 -9 12 -8 12 -11 0
-23 -8 -8 -22 -17 -33 -21 -11 -5 -16 -13 -12 -23 3 -9 6 -22 6 -30 0 -10 7
-13 25 -8 20 5 24 3 19 -10 -3 -8 -15 -14 -27 -13 -13 1 -22 -4 -23 -13 0 -10
1 -10 3 -2 7 19 25 10 34 -17 5 -12 5 -20 1 -17 -5 3 -15 -3 -24 -13 -17 -21
-24 -126 -8 -136 6 -3 10 -12 10 -18 0 -7 -4 -6 -10 3 -5 8 -10 10 -10 5 0 -6
6 -17 13 -24 9 -11 9 -13 0 -7 -8 4 -13 1 -13 -8 0 -8 6 -16 13 -19 9 -3 9 -7
-1 -20 -11 -13 -10 -16 9 -19 12 -2 25 -10 27 -18 5 -13 3 -13 -11 -2 -9 8
-21 10 -28 6 -8 -5 -7 -9 5 -16 9 -5 16 -14 16 -19 0 -6 -4 -8 -9 -5 -4 3 -8
-7 -7 -22 0 -15 -3 -38 -7 -52 -6 -19 -6 -21 2 -10 8 12 11 6 11 -25 0 -22 -4
-46 -9 -54 -7 -11 -4 -20 10 -32 15 -12 16 -18 7 -22 -8 -3 -5 -6 7 -7 19 -1
19 -1 2 -14 -13 -10 -15 -16 -7 -21 7 -4 9 -18 6 -30 -5 -19 -1 -25 16 -28 13
-2 7 -3 -13 -1 l-37 4 8 -37 c5 -20 7 -40 5 -43 -2 -4 4 -13 14 -22 15 -13 18
-27 14 -82 -3 -68 1 -78 22 -49 8 11 14 13 19 5 4 -7 -3 -17 -18 -23 -19 -9
-23 -16 -17 -27 10 -18 -9 -42 -34 -42 -12 0 -14 -4 -5 -20 12 -22 10 -41 -5
-52 -6 -5 -5 -8 3 -8 6 0 12 -8 12 -17 0 -15 -2 -16 -10 -3 -8 12 -10 9 -10
-12 0 -20 5 -28 17 -28 15 0 14 -2 -3 -15 -18 -14 -18 -14 11 -15 l30 -2 -27
-10 c-22 -7 -28 -16 -28 -39 0 -16 4 -29 8 -29 5 0 14 -12 21 -26 10 -23 10
-25 -9 -19 -22 7 -30 -19 -7 -28 9 -4 8 -8 -3 -16 -13 -10 -13 -12 0 -21 10
-6 11 -10 3 -10 -10 0 -13 -374 -13 -1735 l0 -1735 319 0 319 0 -25 78 c-13
42 -31 124 -39 182 -79 585 -86 699 -47 782 13 28 31 51 45 57 47 17 92 31 95
28 1 -2 -2 -19 -7 -38 -16 -56 -12 -130 29 -480 47 -401 50 -432 51 -531 l0
-78 1646 0 1646 0 -6 23 c-3 13 -18 95 -33 183 -24 138 -27 186 -27 359 0 185
2 207 27 298 46 173 157 374 259 474 34 33 52 42 83 45 l40 3 -30 20 c-21 15
-46 20 -92 20 -35 0 -63 3 -63 7 0 5 -9 -1 -19 -11 -17 -17 -24 -18 -56 -9
-24 8 -31 14 -23 20 10 6 10 8 -2 9 -10 0 -8 3 5 9 16 7 16 9 4 9 -9 1 -20 12
-23 26 -8 31 -26 23 -26 -11 0 -14 -4 -23 -8 -20 -5 3 -7 18 -4 35 4 26 1 30
-24 34 -16 3 -6 4 21 3 38 -2 51 -7 53 -19 6 -28 22 -19 22 12 0 26 -3 29 -32
27 -32 -1 -33 0 -31 39 1 22 -1 32 -4 22 -2 -9 -9 -17 -14 -17 -5 0 -9 -6 -9
-14 0 -7 -7 -19 -16 -26 -12 -11 -18 -10 -32 3 -15 16 -15 17 1 17 9 0 17 4
17 9 0 11 -25 21 -56 21 -13 0 -33 9 -44 20 l-20 20 0 -25 c0 -17 7 -29 23
-35 22 -9 22 -9 -4 -9 -14 -1 -29 2 -33 6 -7 8 -11 9 -37 12 -5 0 -8 5 -4 11
3 5 12 7 20 3 21 -7 19 7 -2 23 -20 15 -34 18 -32 7 4 -22 -3 -24 -21 -8 -11
10 -20 24 -20 32 0 8 -5 11 -10 8 -6 -3 -14 4 -19 17 -10 23 -10 23 -10 1 -1
-27 -22 -35 -38 -14 -10 13 -12 10 -13 -22 0 -23 -4 -36 -10 -32 -5 3 -10 20
-10 36 0 17 -4 28 -8 25 -4 -3 -25 -1 -45 4 -32 7 -39 5 -48 -13 -10 -17 -9
-19 5 -14 9 4 23 10 31 13 16 7 21 -11 5 -21 -14 -9 0 -35 19 -35 14 0 14 2 1
10 -9 6 -10 10 -3 10 17 0 23 -14 13 -30 -7 -12 -14 -10 -37 12 -15 15 -44 34
-63 43 -19 9 -25 14 -12 11 12 -2 22 0 22 6 0 6 -14 8 -35 4 -26 -5 -40 -3
-51 9 -8 8 -11 15 -5 15 6 0 11 5 11 11 0 6 -13 9 -30 7 -16 -1 -29 2 -29 7 0
6 8 9 17 8 10 -1 11 0 5 3 -15 7 -17 34 -3 34 6 0 10 14 10 31 0 27 -3 30 -22
23 -12 -3 -28 -13 -36 -20 -11 -12 -18 -12 -42 1 -18 9 -27 21 -24 29 3 7 -2
21 -11 30 -18 18 -45 22 -45 6 0 -5 5 -10 11 -10 5 0 7 -5 4 -10 -3 -6 1 -13
9 -16 9 -3 16 -14 16 -23 0 -10 -3 -12 -8 -5 -4 6 -18 11 -32 10 -18 -1 -25 4
-24 16 1 9 -4 14 -10 12 -13 -5 -44 47 -51 86 -26 131 -36 231 -36 386 1 191
8 302 23 321 6 7 29 11 56 9 34 -2 47 -7 53 -22 6 -17 7 -16 10 6 3 16 10 25
21 24 9 -1 14 4 12 11 -3 7 4 19 15 27 24 17 33 62 12 63 -8 0 -16 6 -19 13
-2 8 2 10 15 5 15 -6 16 -4 5 9 -9 11 -25 14 -55 11 -54 -5 -88 18 -70 47 10
14 10 20 0 23 -9 4 -9 6 1 6 6 1 12 8 12 16 0 18 1 18 34 5 35 -13 33 0 -4 25
-16 11 -30 23 -30 26 0 3 11 18 25 33 30 33 31 34 3 38 -25 3 -26 12 -13 140
5 49 10 65 20 62 15 -6 27 55 13 73 -5 7 -5 13 0 17 6 3 13 23 17 43 7 41 30
73 51 73 7 0 18 9 24 19 5 11 26 25 45 31 33 11 39 9 71 -15 40 -31 49 -29 35
8 -12 32 -64 61 -93 51 -14 -4 -18 -3 -13 6 4 7 23 10 46 8 35 -3 40 0 57 32
11 19 23 50 27 68 4 18 10 30 14 28 4 -3 13 -1 21 5 11 6 12 9 2 9 -7 0 -12 8
-11 18 1 9 0 28 -1 42 l-1 25 -11 -22 c-6 -13 -15 -23 -20 -23 -17 0 3 94 32
150 45 90 46 124 9 218 -12 29 -12 33 9 48 12 8 22 19 22 23 0 5 -16 28 -35
52 -41 52 -44 92 -16 209 10 41 16 79 13 84 -2 4 -6 31 -8 60 -4 52 -30 133
-49 152 -16 16 -106 38 -113 28 -4 -6 -23 -11 -42 -11 -27 -2 -31 0 -15 6 19
8 19 9 -5 19 -17 6 -27 6 -32 -2 -4 -6 -5 6 -1 27 7 46 -19 109 -53 132 -13 9
-24 24 -24 33 0 24 -47 68 -69 64 -11 -2 -28 12 -46 38 -17 24 -39 43 -54 46
-40 8 -76 31 -76 48 0 8 -6 21 -14 28 -10 10 -12 10 -7 1 9 -16 -6 -17 -22 -1
-7 7 -12 9 -12 5 0 -3 -11 5 -24 18 -14 14 -31 22 -43 19 -12 -3 -33 8 -62 35
-44 41 -86 57 -119 47 -14 -5 -22 3 -36 34 -30 69 -152 112 -283 101 -67 -6
-75 -9 -101 -40 -17 -20 -38 -34 -56 -36 -15 -2 -34 -12 -43 -22 -8 -10 -11
-12 -8 -5 4 8 -14 -7 -41 -32 -26 -25 -50 -44 -52 -41 -3 3 6 14 20 25 28 22
41 63 25 79 -16 16 -53 13 -67 -4 -11 -13 -16 -12 -41 5 -25 19 -27 23 -17 51
11 32 6 50 -8 27z m146 -168 c0 -5 -5 -10 -11 -10 -5 0 -7 5 -4 10 3 6 8 10
11 10 2 0 4 -4 4 -10z m830 -120 c8 -5 11 -10 5 -10 -5 0 -17 5 -25 10 -8 5
-10 10 -5 10 6 0 17 -5 25 -10z m224 -205 c3 -8 1 -15 -4 -15 -6 0 -10 7 -10
15 0 8 2 15 4 15 2 0 6 -7 10 -15z m-3074 -12 c0 -14 -19 -38 -25 -32 -8 8 5
39 16 39 5 0 9 -3 9 -7z m-45 -23 c-3 -5 -10 -10 -16 -10 -5 0 -9 5 -9 10 0 6
7 10 16 10 8 0 12 -4 9 -10z m96 -43 c-5 -13 -7 -36 -5 -53 l4 -29 -11 25
c-14 29 -19 71 -7 64 4 -3 8 0 8 5 0 6 4 11 10 11 6 0 6 -9 1 -23z m3105 -22
c9 -8 14 -22 12 -31 -3 -14 -6 -14 -27 3 -14 11 -21 25 -17 31 9 16 14 15 32
-3z m-2956 -19 c0 -11 -19 -15 -25 -6 -3 5 1 10 9 10 9 0 16 -2 16 -4z m-39
-23 c13 -15 12 -15 -8 -4 -24 12 -29 21 -14 21 5 0 15 -7 22 -17z m-58 -13
c-3 -11 -9 -17 -15 -14 -5 3 -4 12 3 20 16 19 18 18 12 -6z m107 -5 c-7 -8
-17 -15 -23 -15 -6 0 -2 7 9 15 25 19 30 19 14 0z m-3 -67 c-3 -8 -6 -5 -6 6
-1 11 2 17 5 13 3 -3 4 -12 1 -19z m65 -20 c-6 -6 -15 -8 -19 -3 -5 4 -2 10 5
12 6 3 9 10 6 16 -5 8 -2 8 7 0 10 -10 10 -16 1 -25z m101 -33 c-3 -8 -15 -14
-27 -14 -16 1 -17 2 -3 6 9 2 17 11 17 19 0 8 4 13 10 9 5 -3 7 -12 3 -20z
m-213 6 c0 -6 -4 -13 -10 -16 -5 -3 -10 1 -10 9 0 9 5 16 10 16 6 0 10 -4 10
-9z m1719 -32 c45 -7 67 -7 75 1 13 13 49 13 41 1 -3 -6 6 -7 22 -2 28 7 177
7 246 0 20 -3 37 -1 37 3 0 7 46 -10 93 -33 12 -7 16 -5 15 3 -2 7 3 12 10 10
6 -1 30 -4 53 -6 22 -2 45 -8 52 -15 6 -6 22 -11 36 -11 27 0 111 -46 111 -60
0 -6 -5 -10 -11 -10 -5 0 -7 -5 -4 -11 4 -6 -2 -13 -14 -16 -25 -6 -28 -40 -3
-46 13 -4 11 -5 -5 -6 -27 -1 -31 -21 -5 -21 13 0 18 -7 18 -22 -1 -13 5 -23
13 -23 16 0 29 -28 32 -70 2 -28 2 -28 7 -5 l5 25 8 -25 c7 -24 7 -24 8 -2 l1
23 24 -23 c13 -13 20 -27 16 -33 -7 -9 -14 -49 -11 -68 1 -4 10 -3 21 3 18 10
20 8 20 -21 0 -18 3 -30 6 -26 4 3 13 0 20 -8 17 -16 13 -87 -5 -93 -14 -5
-14 -23 1 -59 6 -15 10 -34 9 -40 -1 -7 2 -13 7 -13 6 0 12 -7 15 -14 4 -11 1
-13 -11 -9 -14 5 -15 3 -4 -8 15 -16 16 -69 1 -69 -5 0 -7 5 -3 12 5 8 0 9
-16 5 -13 -3 -30 -1 -37 5 -23 19 -139 9 -154 -13 -3 -5 -40 -12 -82 -15 -42
-4 -74 -10 -72 -14 3 -4 -20 -11 -51 -15 -70 -8 -152 -33 -179 -52 -19 -14
-19 -15 5 -7 22 6 23 5 12 -9 -8 -9 -23 -17 -35 -19 -18 -3 -19 -5 -6 -18 8
-8 14 -26 14 -40 l-1 -26 81 22 c44 12 104 29 133 37 29 9 76 15 105 16 29 0
61 2 72 5 74 18 88 19 80 5 -6 -11 -5 -12 6 -1 15 14 33 16 25 3 -4 -5 7 -12
24 -15 16 -3 44 -9 60 -12 17 -3 30 -10 30 -15 0 -5 6 -9 13 -9 12 0 40 -35
35 -45 -2 -2 7 -12 20 -20 12 -9 22 -23 22 -31 0 -8 11 -24 25 -36 13 -11 30
-37 36 -57 7 -20 17 -39 22 -43 6 -3 12 -30 13 -60 1 -29 5 -61 9 -71 4 -9 5
-28 3 -42 -3 -13 0 -26 6 -29 7 -3 6 -8 -4 -15 -9 -6 -16 -29 -17 -63 -4 -112
-9 -157 -16 -164 -4 -4 -7 -17 -7 -28 0 -17 -2 -18 -10 -6 -11 18 -23 8 -14
-14 3 -9 11 -13 17 -9 5 3 8 2 5 -3 -14 -26 -21 -53 -22 -94 -1 -30 -6 -44
-14 -42 -7 1 -12 -9 -13 -25 0 -28 -1 -28 -11 -5 -16 31 -23 27 -26 -15 -3
-42 -6 -48 -22 -38 -7 4 -9 18 -6 31 5 18 3 22 -9 18 -8 -4 -15 -17 -15 -30 0
-12 -6 -27 -14 -31 -8 -4 -19 -31 -24 -58 -5 -28 -10 -39 -11 -26 -1 17 -4 22
-11 15 -11 -11 -23 -58 -22 -84 5 -119 0 -157 -28 -210 -27 -51 -51 -109 -52
-127 -1 -7 -7 -13 -14 -13 -14 0 -46 -53 -42 -68 4 -12 -59 -82 -73 -82 -6 0
-7 6 -4 13 4 6 1 5 -7 -4 -7 -9 -17 -14 -23 -12 -12 4 -13 -46 -2 -64 13 -20
0 -31 -29 -25 -16 3 -30 -1 -35 -9 -8 -12 -10 -12 -18 0 -5 8 -16 11 -26 7
-10 -3 -15 -10 -11 -13 4 -4 -15 -17 -41 -29 -35 -16 -50 -19 -55 -11 -5 7 -8
1 -8 -14 0 -23 -6 -28 -36 -34 -21 -3 -40 -3 -43 2 -8 11 -72 46 -75 41 -1 -1
-10 -13 -18 -26 -14 -21 -17 -21 -31 -7 -9 8 -22 15 -31 15 -8 0 -19 7 -24 16
-6 10 -14 14 -22 9 -8 -5 -9 -10 -1 -18 13 -13 14 -37 2 -37 -5 0 -12 9 -16
19 -5 17 -39 34 -70 35 -16 1 -37 25 -31 35 10 15 -5 43 -20 37 -19 -7 -81 56
-101 104 -17 39 -33 52 -33 28 0 -7 -14 1 -30 19 -17 18 -30 37 -30 44 0 6 -7
9 -14 6 -9 -4 -17 2 -21 13 -4 11 -14 27 -23 37 -9 9 -17 19 -17 22 0 3 -10
20 -23 38 -12 17 -22 37 -22 45 0 7 -7 23 -15 35 -8 11 -17 40 -21 64 -8 51
-31 102 -43 94 -12 -7 -22 21 -14 41 4 10 -4 24 -21 39 -14 12 -26 27 -26 34
0 6 -6 10 -12 9 -7 -2 -13 4 -13 14 0 9 -13 28 -28 43 -19 20 -27 38 -27 64 0
20 -9 49 -19 65 -11 16 -17 35 -14 42 3 8 0 14 -6 14 -6 0 -11 -4 -11 -10 0
-5 -5 -10 -11 -10 -8 0 -8 4 0 14 14 16 6 76 -14 116 -8 14 -17 44 -21 65 -4
22 -11 43 -16 46 -5 3 -12 47 -15 98 -6 93 14 251 40 311 6 14 10 30 9 36 -1
7 8 14 22 18 14 3 26 16 30 31 4 14 12 25 20 25 7 0 18 6 24 13 15 18 252 17
274 -1 9 -7 30 -14 47 -15 17 -1 31 -3 31 -4 0 -17 -18 -33 -38 -33 -40 0 -14
-15 49 -29 49 -10 61 -18 84 -51 15 -22 32 -40 36 -40 5 0 9 -10 8 -22 0 -13
-3 -17 -6 -10 -2 6 -12 12 -20 12 -8 0 -24 11 -35 25 -30 38 -114 59 -216 52
-63 -4 -91 -10 -111 -25 -21 -15 -32 -17 -45 -10 -12 7 -21 7 -29 -1 -6 -6
-15 -11 -21 -11 -5 0 4 11 20 25 15 13 25 27 22 30 -3 4 -22 -8 -42 -26 -25
-21 -35 -37 -31 -49 3 -10 -4 -43 -16 -75 -18 -47 -19 -59 -8 -66 24 -15 68
-10 112 12 41 22 42 22 19 37 -31 20 -28 43 12 81 l33 32 7 -28 c12 -45 54
-83 94 -83 47 0 92 46 92 94 0 35 1 36 28 30 34 -8 79 -31 87 -43 3 -6 -4 -18
-14 -28 -20 -19 -20 -19 14 -15 32 4 48 -9 27 -22 -5 -3 -7 -20 -6 -38 1 -18
-2 -39 -8 -46 -8 -9 -7 -11 7 -6 20 8 37 -13 29 -38 -2 -9 0 -19 6 -23 7 -4 3
-17 -10 -35 -17 -24 -20 -42 -18 -99 3 -60 5 -68 19 -60 9 4 22 23 28 41 14
37 36 85 50 108 27 47 35 78 35 153 0 105 -9 148 -38 180 -13 14 -26 24 -28
22 -2 -3 -28 10 -57 28 -45 29 -50 35 -37 46 8 7 20 9 27 5 21 -13 0 64 -31
113 -22 34 -31 42 -35 30 -6 -14 -10 -13 -39 4 -24 14 -40 17 -62 11 -16 -5
-42 -5 -59 -1 -16 4 -72 7 -122 8 -75 1 -93 4 -93 16 0 12 -7 11 -36 -6 -35
-19 -65 -18 -34 1 11 7 12 10 2 10 -7 0 -10 5 -7 10 4 6 1 17 -5 25 -14 17 -5
66 13 77 6 4 8 10 5 14 -4 3 -14 -1 -23 -10 -23 -23 -35 -20 -35 10 0 20 4 24
19 19 11 -3 22 -1 26 5 3 5 -2 10 -13 10 -23 0 -34 21 -22 40 5 8 5 21 1 29
-4 9 -7 32 -6 51 0 34 1 35 43 38 37 3 41 5 32 22 -7 13 -5 26 5 47 9 17 11
29 5 31 -6 2 -7 8 -4 14 4 6 10 5 15 -3 10 -17 19 -9 25 27 6 28 12 56 13 62
1 1 1 5 2 10 0 4 7 15 16 24 9 10 13 26 10 38 -3 11 0 20 6 21 7 1 1 5 -13 9
-24 8 -25 8 -2 9 13 1 22 6 20 14 -7 30 18 19 29 -13 13 -38 14 -36 17 27 0
24 4 43 9 43 4 0 7 6 7 14 0 9 7 12 19 9 14 -4 24 3 35 25 10 19 25 31 43 35
15 2 53 14 83 26 30 12 60 19 66 17 6 -2 17 0 25 5 17 11 11 11 88 -2z m-1539
-13 c0 -2 -9 -6 -20 -9 -11 -3 -20 -1 -20 4 0 5 9 9 20 9 11 0 20 -2 20 -4z
m-378 -46 c-2 -16 -6 -30 -8 -30 -2 0 -4 14 -4 30 0 17 4 30 8 30 5 0 7 -13 4
-30z m373 20 c3 -5 1 -10 -4 -10 -6 0 -11 5 -11 10 0 6 2 10 4 10 3 0 8 -4 11
-10z m-2 -20 c12 -1 -32 -29 -45 -30 -3 0 -4 9 -1 21 4 12 11 18 20 15 8 -3
20 -6 26 -6z m2984 -52 c-3 -8 -6 -5 -6 6 -1 11 2 17 5 13 3 -3 4 -12 1 -19z
m-2947 8 c0 -3 -4 -8 -10 -11 -5 -3 -10 -1 -10 4 0 6 5 11 10 11 6 0 10 -2 10
-4z m3010 -32 c0 -8 -4 -14 -10 -14 -5 0 -10 4 -10 9 0 5 -3 18 -7 28 -6 16
-5 16 10 4 9 -7 17 -20 17 -27z m-3185 7 c-3 -6 -11 -11 -16 -11 -5 0 -4 6 3
14 14 16 24 13 13 -3z m115 15 c0 -3 -4 -8 -10 -11 -5 -3 -10 -1 -10 4 0 6 5
11 10 11 6 0 10 -2 10 -4z m2385 -36 c4 -31 4 -32 -15 -15 -15 14 -17 21 -7
36 14 22 17 20 22 -21z m-2584 6 c-6 -7 -9 -21 -5 -30 3 -9 1 -16 -4 -16 -17
0 -19 34 -2 47 20 16 25 16 11 -1z m124 4 c-3 -5 -14 -10 -23 -9 -14 0 -13 2
3 9 27 11 27 11 20 0z m3085 0 c0 -5 -4 -10 -10 -10 -5 0 -10 5 -10 10 0 6 5
10 10 10 6 0 10 -4 10 -10z m-3330 -33 c0 -5 -4 -6 -9 -3 -5 3 -12 -6 -16 -21
-4 -19 -2 -29 9 -35 18 -10 10 -38 -11 -38 -10 0 -12 6 -8 20 4 12 2 20 -5 20
-14 0 -4 57 14 76 11 12 25 1 26 -19z m320 29 c0 -2 -7 -6 -15 -10 -8 -3 -15
-1 -15 4 0 6 7 10 15 10 8 0 15 -2 15 -4z m70 -26 c0 -5 -5 -10 -11 -10 -5 0
-7 5 -4 10 3 6 8 10 11 10 2 0 4 -4 4 -10z m-313 -22 c-3 -8 -6 -5 -6 6 -1 11
2 17 5 13 3 -3 4 -12 1 -19z m167 -12 c-3 -15 -8 -25 -11 -23 -2 3 -1 17 3 31
3 15 8 25 11 23 2 -3 1 -17 -3 -31z m65 -13 c1 -7 -3 -13 -9 -13 -5 0 -10 15
-9 33 0 27 2 29 9 12 5 -11 9 -26 9 -32z m115 22 c4 -14 11 -23 16 -20 15 9
21 -12 6 -24 -10 -8 -16 -8 -23 1 -15 19 -25 68 -14 68 5 0 12 -11 15 -25z
m2319 -6 c4 -16 3 -18 -9 -8 -16 13 -19 29 -5 29 5 0 11 -9 14 -21z m627 11
c0 -5 -4 -10 -10 -10 -5 0 -10 5 -10 10 0 6 5 10 10 10 6 0 10 -4 10 -10z
m-3340 -15 c0 -8 -4 -15 -10 -15 -5 0 -7 7 -4 15 4 8 8 15 10 15 2 0 4 -7 4
-15z m127 9 c-3 -3 -12 -4 -19 -1 -8 3 -5 6 6 6 11 1 17 -2 13 -5z m323 -4 c0
-12 -8 -12 -35 0 -18 8 -17 9 8 9 15 1 27 -3 27 -9z m-340 -30 c0 -6 12 -10
26 -10 14 0 23 -4 19 -10 -3 -5 1 -10 10 -10 11 0 15 5 11 16 -3 8 -2 12 4 9
17 -10 11 -33 -10 -40 -19 -6 -28 -25 -12 -25 4 0 8 -9 9 -20 1 -11 -1 -20 -5
-20 -14 0 -33 42 -27 59 8 26 -45 37 -62 13 -12 -14 -13 -14 -13 4 0 10 3 29
6 41 5 19 10 21 25 12 10 -5 19 -14 19 -19z m140 -10 c9 -16 8 -18 -5 -14 -8
4 -15 12 -15 20 0 20 7 17 20 -6z m1150 10 c0 -6 -7 -13 -15 -16 -8 -4 -15
-13 -15 -22 0 -12 -3 -13 -11 -5 -8 8 -6 17 7 32 20 23 34 27 34 11z m-1034
-37 c-8 -8 -36 10 -36 23 0 11 4 10 20 -3 11 -9 18 -18 16 -20z m541 15 c-3
-8 -6 -5 -6 6 -1 11 2 17 5 13 3 -3 4 -12 1 -19z m2463 -23 c-1 -19 -1 -19
-15 -2 -7 11 -11 26 -8 34 5 12 7 12 14 1 5 -7 9 -22 9 -33z m-3370 5 c0 -5
-4 -10 -10 -10 -5 0 -10 5 -10 10 0 6 5 10 10 10 6 0 10 -4 10 -10z m240 -26
c0 -8 -4 -14 -10 -14 -5 0 -10 9 -10 21 0 11 5 17 10 14 6 -3 10 -13 10 -21z
m-131 -1 c-7 -10 -14 -20 -16 -22 -1 -2 -1 6 0 18 1 11 8 21 15 21 12 0 12 -3
1 -17z m251 7 c-13 -9 -13 -11 0 -21 12 -8 11 -9 -7 -4 -15 4 -22 1 -25 -10
-2 -13 -5 -12 -16 5 -11 17 -10 20 7 20 11 0 23 5 26 10 3 6 12 10 18 10 7 0
6 -4 -3 -10z m50 -4 c0 -8 6 -17 13 -19 6 -3 -1 -5 -18 -5 -16 0 -25 2 -18 4
7 3 9 12 6 20 -3 8 0 14 6 14 6 0 11 -6 11 -14z m-436 -23 c-2 -40 -3 -43 -13
-43 -8 0 -9 19 -2 63 0 4 5 7 9 7 4 0 7 -12 6 -27z m1410 -7 c-6 -25 -24 -37
-24 -15 0 15 21 52 26 46 3 -3 2 -16 -2 -31z m-1444 -1 c0 -8 -4 -15 -10 -15
-5 0 -10 7 -10 15 0 8 5 15 10 15 6 0 10 -7 10 -15z m68 -10 c-3 -3 -9 2 -12
12 -6 14 -5 15 5 6 7 -7 10 -15 7 -18z m222 8 c0 -13 -29 -32 -35 -23 -3 5 -1
10 5 10 7 0 10 7 7 14 -4 10 -1 13 9 9 7 -3 14 -7 14 -10z m-143 -18 c0 -20
-4 -19 -17 5 -8 15 -8 18 3 14 8 -3 14 -11 14 -19z m53 16 c0 -5 3 -17 7 -26
5 -16 4 -16 -15 1 -12 9 -19 21 -16 26 7 11 24 10 24 -1z m130 -6 c0 -8 -7
-15 -16 -15 -14 0 -14 3 -4 15 7 8 14 15 16 15 2 0 4 -7 4 -15z m620 11 c0 -2
-8 -10 -17 -17 -16 -13 -17 -12 -4 4 13 16 21 21 21 13z m-490 -16 c0 -5 -7
-10 -16 -10 -8 0 -12 5 -9 10 3 6 10 10 16 10 5 0 9 -4 9 -10z m-313 -52 c-3
-8 -6 -5 -6 6 -1 11 2 17 5 13 3 -3 4 -12 1 -19z m-62 -16 c-3 -3 -11 0 -18 7
-9 10 -8 11 6 5 10 -3 15 -9 12 -12z m140 8 c3 -5 1 -10 -4 -10 -6 0 -11 5
-11 10 0 6 2 10 4 10 3 0 8 -4 11 -10z m95 -28 c0 -15 -2 -15 -10 -2 -13 20
-13 33 0 25 6 -3 10 -14 10 -23z m-250 -22 c0 -5 -5 -10 -11 -10 -5 0 -7 5 -4
10 3 6 8 10 11 10 2 0 4 -4 4 -10z m1300 -10 c0 -5 -4 -10 -10 -10 -5 0 -10 5
-10 10 0 6 5 10 10 10 6 0 10 -4 10 -10z m-1220 -10 c0 -5 -2 -10 -4 -10 -3 0
-8 5 -11 10 -3 6 -1 10 4 10 6 0 11 -4 11 -10z m420 -20 c0 -5 -4 -10 -10 -10
-5 0 -10 5 -10 10 0 6 5 10 10 10 6 0 10 -4 10 -10z m-30 -30 c0 -5 -2 -10 -4
-10 -3 0 -8 5 -11 10 -3 6 -1 10 4 10 6 0 11 -4 11 -10z m337 4 c-3 -3 -12 -4
-19 -1 -8 3 -5 6 6 6 11 1 17 -2 13 -5z m-302 -24 c3 -5 1 -10 -4 -10 -6 0
-11 5 -11 10 0 6 2 10 4 10 3 0 8 -4 11 -10z m149 -48 c3 -5 -1 -9 -9 -9 -8 0
-12 4 -9 9 3 4 7 8 9 8 2 0 6 -4 9 -8z m2166 -2 c0 -5 -5 -10 -11 -10 -5 0 -7
5 -4 10 3 6 8 10 11 10 2 0 4 -4 4 -10z m600 -47 c0 -16 -5 -35 -10 -43 -7
-11 -10 -4 -10 28 0 23 5 42 10 42 6 0 10 -12 10 -27z m-2900 -8 c0 -8 -4 -15
-10 -15 -5 0 -7 7 -4 15 4 8 8 15 10 15 2 0 4 -7 4 -15z m-535 -16 c11 -17 -1
-21 -15 -4 -8 9 -8 15 -2 15 6 0 14 -5 17 -11z m25 -144 c0 -8 -2 -15 -4 -15
-2 0 -6 7 -10 15 -3 8 -1 15 4 15 6 0 10 -7 10 -15z m-56 -4 c3 -5 -1 -14 -8
-21 -12 -9 -17 -7 -26 9 -9 18 -8 21 9 21 11 0 22 -4 25 -9z m186 -35 c0 -3
-4 -8 -10 -11 -5 -3 -10 -1 -10 4 0 6 5 11 10 11 6 0 10 -2 10 -4z m387 -28
c-3 -8 -6 -5 -6 6 -1 11 2 17 5 13 3 -3 4 -12 1 -19z m-576 -48 c6 0 7 -5 4
-10 -11 -19 -25 1 -24 33 2 30 2 31 6 5 2 -16 9 -28 14 -28z m889 -34 c0 -2
-7 -7 -16 -10 -8 -3 -12 -2 -9 4 6 10 25 14 25 6z m-310 -36 c0 -13 -5 -18
-15 -14 -16 7 -19 17 -8 27 12 13 23 7 23 -13z m-600 -16 c0 -2 -7 -4 -15 -4
-8 0 -15 4 -15 10 0 5 7 7 15 4 8 -4 15 -8 15 -10z m47 0 c-3 -3 -12 -4 -19
-1 -8 3 -5 6 6 6 11 1 17 -2 13 -5z m493 -64 c0 -5 -4 -10 -10 -10 -5 0 -10 5
-10 10 0 6 5 10 10 10 6 0 10 -4 10 -10z m395 -10 c3 -5 1 -10 -4 -10 -6 0
-11 5 -11 10 0 6 2 10 4 10 3 0 8 -4 11 -10z m-365 -16 c0 -8 -4 -12 -10 -9
-5 3 -10 10 -10 16 0 5 5 9 10 9 6 0 10 -7 10 -16z m-3 -40 c-3 -3 -12 -4 -19
-1 -8 3 -5 6 6 6 11 1 17 -2 13 -5z m2758 -4 c-3 -5 -16 -15 -28 -21 -22 -12
-22 -12 -3 10 19 21 43 30 31 11z m-1655 -30 c0 -5 -9 -10 -20 -10 -11 0 -20
5 -20 10 0 6 9 10 20 10 11 0 20 -4 20 -10z m1580 -45 c-16 -19 -30 -19 -30 0
0 17 33 38 38 24 2 -5 -2 -16 -8 -24z m-2680 -7 c0 -19 -18 -44 -25 -36 -4 3
0 15 7 27 15 24 18 26 18 9z m454 -47 c-5 -5 -33 30 -34 43 0 4 9 -2 19 -15
11 -13 17 -26 15 -28z m6 -75 c0 -2 -7 -7 -16 -10 -8 -3 -12 -2 -9 4 6 10 25
14 25 6z m59 -49 c6 -8 7 -17 3 -21 -4 -4 2 -14 12 -22 12 -8 15 -14 7 -14
-11 0 -12 -21 -7 -97 4 -54 8 -107 10 -118 3 -11 5 -36 5 -55 1 -24 8 -39 21
-48 18 -11 19 -10 9 14 -10 28 -13 140 -6 214 3 25 0 51 -5 58 -7 8 -7 12 1
12 7 0 9 5 6 10 -3 6 -1 10 5 10 12 0 22 -22 24 -53 1 -14 8 -22 18 -21 12 1
18 -11 23 -48 4 -27 4 -52 1 -55 -3 -3 1 -11 9 -17 9 -6 22 -32 30 -59 13 -45
13 -47 -5 -47 -16 0 -20 -7 -20 -30 0 -24 -4 -30 -21 -30 -15 0 -19 -4 -15
-16 3 -9 6 -18 6 -20 0 -2 11 -4 25 -4 17 0 29 7 35 23 l9 22 0 -23 c1 -14 5
-21 12 -16 8 4 9 -2 5 -22 -5 -24 -2 -31 16 -39 13 -6 24 -20 26 -32 3 -21 -1
-23 -40 -23 -53 0 -79 17 -83 55 -2 15 -15 38 -29 49 -24 19 -66 89 -66 108 0
5 -24 59 -54 121 -72 148 -84 227 -36 227 10 0 22 5 25 10 9 14 31 12 44 -3z
m1881 -1182 c8 -9 8 -15 2 -15 -6 0 -12 5 -14 12 -2 6 -10 8 -16 4 -17 -10
-15 -26 3 -26 12 0 13 -4 3 -19 -9 -15 -7 -26 10 -59 15 -29 18 -43 10 -48 -7
-4 -8 -3 -4 4 4 7 2 12 -3 12 -6 0 -11 -2 -11 -4 0 -2 -3 -12 -6 -20 -4 -12
-2 -15 9 -10 11 4 17 -3 22 -26 7 -32 2 -45 -18 -45 -7 0 -13 -10 -15 -22 -2
-13 1 -23 5 -23 5 0 10 -39 10 -87 1 -114 2 -115 11 -109 4 2 12 -10 18 -29 8
-26 8 -32 -3 -28 -9 4 -13 -5 -13 -31 0 -21 5 -35 11 -34 6 2 14 -3 17 -11 3
-9 0 -11 -7 -7 -14 9 -4 -41 12 -61 6 -9 6 -18 -2 -27 -9 -11 -5 -15 21 -20
27 -5 36 -3 47 14 7 11 20 20 28 20 9 0 13 6 9 15 -6 17 -4 18 18 9 9 -3 16
-12 16 -20 0 -8 10 -14 25 -14 14 0 24 -3 24 -7 -4 -23 3 -35 16 -29 8 3 15 1
15 -4 0 -6 -7 -10 -16 -10 -11 0 -14 -5 -10 -16 3 -8 -1 -31 -9 -50 -8 -19
-12 -34 -9 -34 9 0 82 167 112 257 50 145 55 178 36 219 -9 20 -24 34 -34 34
-10 0 -23 6 -29 14 -10 12 -7 18 18 31 17 8 31 12 31 7 0 -5 -10 -14 -22 -19
-23 -10 -22 -10 4 -10 28 -1 41 17 32 42 -4 9 1 18 10 21 27 10 28 -1 7 -40
-20 -36 -20 -36 -1 -46 11 -6 26 -8 32 -4 6 4 8 3 5 -3 -4 -6 11 -23 33 -38
23 -16 41 -38 45 -54 7 -31 -25 -184 -50 -246 -37 -88 -74 -163 -112 -225 -44
-72 -61 -108 -195 -405 -177 -392 -268 -517 -464 -633 -115 -68 -176 -87 -289
-87 -87 0 -93 1 -171 43 -173 91 -389 301 -507 492 -58 95 -160 306 -186 389
-32 99 -53 267 -49 396 3 100 6 117 25 142 13 15 29 43 37 61 8 17 16 32 18
32 2 0 28 9 58 20 76 28 79 26 30 -20 l-43 -40 7 -127 c11 -201 45 -344 121
-517 25 -56 43 -79 25 -31 -8 22 -7 27 13 34 14 6 29 5 42 -4 16 -10 24 -10
42 2 13 9 23 11 23 5 0 -6 14 -17 30 -26 26 -12 30 -12 30 0 0 8 11 14 28 15
15 0 21 3 15 6 -7 2 -13 11 -13 19 0 8 -4 14 -10 14 -13 0 -13 27 0 32 5 2 7
13 4 25 -4 13 -10 21 -14 18 -4 -3 -13 1 -19 9 -16 19 -10 96 7 96 7 0 10 -4
7 -10 -3 -5 -3 -10 2 -10 9 0 33 48 33 64 0 6 -5 3 -11 -6 -5 -10 -15 -18 -21
-18 -9 0 -9 3 -1 11 6 6 9 18 6 25 -3 8 1 14 10 14 17 0 32 34 22 50 -5 8 -11
7 -21 -1 -12 -10 -14 -2 -14 49 0 48 -4 63 -17 71 -15 8 -16 12 -5 22 10 11 8
15 -9 24 -18 10 -19 13 -6 26 22 23 18 66 -10 93 -15 15 -20 27 -13 31 5 3 10
1 10 -6 0 -10 2 -10 13 0 10 10 9 15 -4 24 -20 15 -32 70 -13 63 9 -3 11 2 8
19 -4 23 -3 23 26 14 16 -6 27 -15 24 -21 -3 -5 3 -12 15 -15 12 -3 24 -16 27
-29 3 -13 10 -24 15 -24 5 0 9 -6 9 -14 0 -8 9 -18 20 -21 13 -4 20 -15 20
-30 0 -25 21 -47 27 -28 2 5 26 9 53 7 28 -1 53 2 56 8 4 7 9 7 13 0 11 -17
81 -22 81 -6 0 8 -7 14 -15 14 -8 0 -15 8 -15 18 0 9 -11 29 -25 44 -22 24
-23 29 -10 42 8 8 15 19 15 23 0 5 39 13 86 19 66 7 91 6 104 -3 15 -10 19
-10 23 0 3 6 6 2 6 -10 1 -26 19 -31 28 -7 4 12 14 14 37 11 17 -3 25 -3 18 0
-24 10 -1 22 25 12 19 -7 28 -6 37 4 22 26 65 47 72 36 9 -14 34 30 27 47 -4
10 23 25 47 27 11 1 79 91 74 99 -3 4 0 8 7 8 16 0 59 47 59 65 0 8 6 18 13
22 13 9 42 63 39 75 -3 14 32 48 49 48 9 0 22 -7 29 -15z m0 -55 c0 -5 -4 -10
-10 -10 -5 0 -10 5 -10 10 0 6 5 10 10 10 6 0 10 -4 10 -10z m280 -236 c0 -11
-5 -10 -20 3 -11 10 -20 18 -20 19 0 1 9 0 20 -3 11 -3 20 -12 20 -19z m439
-146 c-12 -5 -24 -6 -27 -3 -3 3 0 5 6 5 7 0 12 7 12 16 0 14 2 14 16 3 14
-12 13 -14 -7 -21z m26 -28 c3 -6 -1 -7 -9 -4 -18 7 -21 14 -7 14 6 0 13 -4
16 -10z m-18 -16 c-3 -3 -12 -4 -19 -1 -8 3 -5 6 6 6 11 1 17 -2 13 -5z m211
-19 c-3 -3 -9 2 -12 12 -6 14 -5 15 5 6 7 -7 10 -15 7 -18z m-48 -9 c0 -2 -7
-7 -16 -10 -8 -3 -12 -2 -9 4 6 10 25 14 25 6z m77 -81 c0 -8 -4 -15 -8 -15
-4 0 -9 7 -13 15 -3 9 0 15 8 15 7 0 13 -7 13 -15z m90 -31 c-3 -3 -12 -4 -19
-1 -8 3 -5 6 6 6 11 1 17 -2 13 -5z m-3550 -1016 c-3 -8 -6 -5 -6 6 -1 11 2
17 5 13 3 -3 4 -12 1 -19z m-20 -35 c-3 -10 -5 -4 -5 12 0 17 2 24 5 18 2 -7
2 -21 0 -30z m50 -50 c-3 -10 -5 -2 -5 17 0 19 2 27 5 18 2 -10 2 -26 0 -35z
m-32 17 c3 -6 -1 -7 -9 -4 -18 7 -21 14 -7 14 6 0 13 -4 16 -10z m-75 -4 c0
-3 -4 -8 -10 -11 -5 -3 -10 -1 -10 4 0 6 5 11 10 11 6 0 10 -2 10 -4z"/>
<path d="M2695 4550 c-3 -5 -1 -10 4 -10 6 0 11 5 11 10 0 6 -2 10 -4 10 -3 0
-8 -4 -11 -10z"/>
<path d="M2710 4511 c0 -6 4 -13 10 -16 6 -3 7 1 4 9 -7 18 -14 21 -14 7z"/>
<path d="M1485 4200 c-3 -5 -1 -10 4 -10 6 0 11 5 11 10 0 6 -2 10 -4 10 -3 0
-8 -4 -11 -10z"/>
<path d="M1430 4139 c0 -5 5 -7 10 -4 6 3 10 8 10 11 0 2 -4 4 -10 4 -5 0 -10
-5 -10 -11z"/>
<path d="M1951 3784 c0 -11 3 -14 6 -6 3 7 2 16 -1 19 -3 4 -6 -2 -5 -13z"/>
<path d="M1997 3683 c-3 -5 1 -13 8 -20 10 -9 14 -8 18 8 5 18 -16 28 -26 12z"/>
<path d="M2653 3653 c15 -2 39 -2 55 0 15 2 2 4 -28 4 -30 0 -43 -2 -27 -4z"/>
<path d="M2527 3644 c-3 -4 -26 -6 -51 -6 -28 1 -61 -7 -92 -23 -36 -18 -50
-21 -56 -12 -5 8 -8 7 -8 -5 0 -10 -6 -18 -13 -18 -18 0 -12 -82 9 -126 9 -18
13 -37 10 -42 -3 -5 9 -16 26 -23 32 -13 32 -13 8 -20 -23 -6 -22 -7 8 -8 17
-1 32 4 32 10 0 6 6 17 14 25 16 16 9 57 -9 51 -16 -7 -35 27 -28 52 3 11 8
21 12 21 4 0 7 9 8 21 3 33 31 69 56 70 26 0 119 38 96 38 -9 1 -18 -2 -22 -5z"/>
<path d="M2740 3647 c3 -3 18 -8 33 -11 45 -8 68 -17 63 -25 -3 -4 13 -12 35
-18 50 -13 50 1 -1 27 -37 19 -142 41 -130 27z"/>
<path d="M2620 3604 c-97 -19 -167 -60 -196 -115 l-15 -29 43 0 c30 0 39 3 29
9 -8 5 -15 19 -16 31 -2 18 9 27 52 46 29 13 55 24 57 24 2 0 6 -18 10 -39 16
-103 156 -108 182 -7 8 32 21 32 59 0 l30 -25 -30 -24 c-16 -13 -26 -27 -23
-30 8 -8 128 -8 136 -1 27 28 -21 132 -55 119 -12 -5 -14 -3 -8 7 6 10 2 12
-16 7 -13 -3 -42 1 -64 9 -44 16 -136 25 -175 18z m74 -52 c2 -4 -6 -9 -19
-10 -13 -1 -27 3 -30 8 -3 6 5 10 19 10 14 0 27 -4 30 -8z m-9 -32 c-3 -5 -14
-10 -23 -9 -14 0 -13 2 3 9 27 11 27 11 20 0z"/>
<path d="M1570 3580 c-18 -12 -2 -12 25 0 13 6 15 9 5 9 -8 0 -22 -4 -30 -9z"/>
<path d="M1820 3410 c-8 -5 -10 -10 -5 -10 6 0 17 5 25 10 8 5 11 10 5 10 -5
0 -17 -5 -25 -10z"/>
<path d="M1685 3380 c-3 -6 1 -7 9 -4 18 7 21 14 7 14 -6 0 -13 -4 -16 -10z"/>
<path d="M2330 3333 c0 -17 13 -45 70 -153 13 -25 24 -48 25 -52 0 -9 15 -23
24 -23 4 0 15 -8 25 -17 20 -21 44 -25 29 -5 -6 6 -13 25 -17 41 -8 31 -28 56
-46 56 -9 0 -10 11 -5 37 6 32 5 35 -8 24 -13 -10 -15 -9 -10 11 3 17 2 19 -5
9 -8 -12 -14 -8 -31 20 -11 19 -18 42 -15 51 4 13 0 18 -15 18 -13 0 -21 -6
-21 -17z"/>
<path d="M2018 2922 c-19 -22 15 -46 61 -44 22 1 46 -4 53 -12 13 -12 44 -14
56 -2 7 7 -35 44 -59 51 -11 4 -19 9 -19 13 0 13 -82 7 -92 -6z"/>
<path d="M2318 2924 c-33 -14 -55 -40 -44 -51 3 -3 19 2 37 11 18 9 42 16 55
16 13 0 25 4 28 9 3 5 16 7 27 4 16 -4 20 -2 17 8 -6 20 -76 22 -120 3z"/>
<path d="M2501 2906 c-7 -9 -18 -16 -23 -16 -5 0 -21 -12 -36 -26 l-27 -25 34
3 c23 2 40 12 54 29 22 30 20 62 -2 35z"/>
<path d="M1957 2888 c3 -13 11 -29 17 -37 13 -17 73 -40 112 -43 6 -1 11 -14
11 -29 0 -16 -4 -26 -8 -23 -15 9 -49 -29 -38 -42 6 -8 4 -14 -7 -18 -9 -4
-19 -4 -22 -1 -3 3 0 5 7 5 7 0 9 5 6 10 -12 19 -35 10 -41 -15 -7 -27 -19
-33 -27 -12 -4 7 -6 6 -6 -4 -1 -9 -16 -22 -33 -29 -18 -7 -38 -19 -44 -26 -6
-7 -23 -15 -38 -18 -16 -3 -31 -7 -33 -10 -12 -12 -20 -141 -9 -149 6 -5 1 -5
-11 -2 -33 9 -28 -8 7 -29 17 -10 48 -35 70 -57 21 -21 44 -39 52 -39 8 0 9 3
3 8 -10 7 -35 48 -35 57 0 3 16 -2 36 -10 46 -19 54 -19 54 1 0 8 -4 12 -10 9
-5 -3 -10 -2 -10 4 0 5 -3 16 -6 25 -4 12 0 16 17 17 13 0 74 2 134 4 390 13
509 13 492 0 -9 -7 -17 -15 -17 -18 0 -10 45 7 64 25 11 10 28 18 39 18 13 0
17 5 13 16 -3 9 -6 20 -6 25 0 5 -9 9 -20 9 -11 0 -20 3 -20 8 0 13 -97 7
-114 -7 -9 -8 -31 -15 -49 -16 -18 -1 -41 -4 -52 -8 -44 -13 -135 -18 -155 -7
-13 7 -20 7 -20 0 0 -5 -11 -9 -25 -8 -14 1 -25 5 -25 8 0 3 -49 4 -108 3
-103 -1 -110 0 -135 23 -15 13 -32 23 -38 22 -23 -6 -19 19 6 30 14 6 25 18
25 27 0 10 10 15 29 15 16 0 34 7 41 15 7 8 19 15 27 15 11 0 14 7 11 25 -3
14 -1 25 3 25 5 0 9 -12 9 -27 l0 -27 16 22 c9 13 22 21 29 18 9 -3 13 6 11
32 -1 20 -5 43 -9 50 -5 6 -4 12 1 12 18 0 22 31 7 46 -8 9 -15 20 -15 25 0 5
-9 9 -19 9 -11 0 -23 5 -26 10 -4 6 -14 10 -23 9 -27 -4 -61 11 -72 32 -15 26
-29 24 -23 -3z m173 -102 c0 -3 -4 -8 -10 -11 -5 -3 -10 -1 -10 4 0 6 5 11 10
11 6 0 10 -2 10 -4z"/>
<path d="M2356 2795 c4 -8 10 -15 15 -15 4 0 6 7 3 15 -4 8 -10 15 -15 15 -4
0 -6 -7 -3 -15z"/>
<path d="M2335 2779 c-4 -6 -5 -12 -2 -15 2 -3 7 2 10 11 7 17 1 20 -8 4z"/>
<path d="M2392 2735 c-10 -21 -9 -25 3 -25 8 0 15 4 15 9 0 5 3 16 6 25 10 26
-12 18 -24 -9z"/>
<path d="M2200 2689 c0 -5 5 -7 10 -4 6 3 10 8 10 11 0 2 -4 4 -10 4 -5 0 -10
-5 -10 -11z"/>
<path d="M2443 2664 c-14 -30 2 -43 24 -21 14 14 14 17 2 30 -13 12 -16 11
-26 -9z"/>
<path d="M2295 2670 c-3 -5 -1 -10 4 -10 6 0 11 5 11 10 0 6 -2 10 -4 10 -3 0
-8 -4 -11 -10z"/>
<path d="M2210 2639 c0 -5 5 -7 10 -4 6 3 10 8 10 11 0 2 -4 4 -10 4 -5 0 -10
-5 -10 -11z"/>
<path d="M2600 2605 c0 -8 5 -15 10 -15 6 0 10 7 10 15 0 8 -4 15 -10 15 -5 0
-10 -7 -10 -15z"/>
<path d="M2160 2233 c-27 -5 -50 -21 -50 -34 0 -15 55 -66 67 -62 6 2 20 -19
31 -48 19 -51 27 -51 38 -1 8 42 47 5 41 -38 -2 -14 -2 -19 0 -12 3 6 12 12
22 12 12 0 17 7 17 23 -1 15 4 21 15 19 12 -2 18 8 23 35 11 71 5 89 -35 100
-33 8 -138 12 -169 6z"/>
<path d="M2690 2131 c0 -5 7 -11 15 -15 8 -3 15 -1 15 3 0 5 -7 11 -15 15 -8
3 -15 1 -15 -3z"/>
<path d="M2252 1930 c0 -14 2 -19 5 -12 2 6 2 18 0 25 -3 6 -5 1 -5 -13z"/>
<path d="M2685 1711 c-3 -5 -1 -12 5 -16 5 -3 10 1 10 9 0 18 -6 21 -15 7z"/>
<path d="M2225 1501 c-3 -5 -1 -12 5 -16 5 -3 10 1 10 9 0 18 -6 21 -15 7z"/>
<path d="M3170 1081 c-44 -84 -83 -134 -96 -123 -4 4 -4 1 0 -6 4 -7 13 -10
19 -6 7 3 4 -1 -5 -9 -10 -8 -15 -17 -12 -20 3 -3 -2 -18 -12 -34 -14 -22 -14
-25 -2 -13 15 14 136 233 151 273 15 40 -5 12 -43 -62z"/>
<path d="M1836 797 c3 -10 9 -15 12 -12 3 3 0 11 -7 18 -10 9 -11 8 -5 -6z"/>
<path d="M2492 601 c5 -20 11 -43 13 -51 2 -8 4 -21 4 -27 1 -7 11 -13 24 -13
19 1 20 2 5 11 -14 8 -15 15 -8 35 11 29 -10 81 -33 81 -11 0 -12 -8 -5 -36z"/>
<path d="M2906 593 c-6 -14 -5 -15 5 -6 7 7 10 15 7 18 -3 3 -9 -2 -12 -12z"/>
<path d="M2880 555 c-7 -8 -19 -15 -26 -15 -8 0 -14 -7 -14 -15 0 -9 -6 -12
-15 -9 -8 4 -15 1 -15 -5 0 -6 -8 -11 -18 -11 -11 0 -32 -11 -48 -25 -16 -14
-30 -20 -32 -15 -2 6 -8 10 -14 10 -6 0 -8 -7 -4 -15 3 -8 1 -15 -4 -15 -6 0
-10 5 -10 11 0 21 -34 -24 -38 -50 -4 -33 -12 -41 -12 -12 0 12 -4 19 -10 16
-6 -3 -7 -17 -4 -31 5 -18 2 -24 -10 -24 -9 0 -16 5 -16 11 0 5 5 7 10 4 6 -3
10 -1 10 4 0 6 -4 11 -9 11 -5 0 -12 8 -14 18 -4 14 -6 14 -12 -5 -6 -18 -11
-21 -25 -13 -15 8 -19 6 -23 -13 -3 -16 -5 -13 -6 11 -1 29 -3 31 -20 20 -14
-9 -17 -16 -11 -29 5 -9 6 -20 2 -24 -4 -3 -8 -11 -8 -16 -1 -5 -2 -13 -3 -19
0 -5 -6 -10 -12 -10 -5 0 -7 5 -3 12 5 8 2 9 -9 5 -10 -3 -17 -2 -17 3 0 14
-43 6 -48 -8 -2 -7 -10 -12 -18 -12 -9 0 -12 -4 -9 -10 3 -5 2 -10 -3 -10 -13
0 -23 27 -16 45 4 9 0 15 -9 15 -8 0 -17 -6 -20 -13 -7 -18 -77 -10 -77 9 0 8
-3 13 -7 13 -20 -3 -24 2 -13 16 11 13 10 14 -3 9 -10 -4 -23 6 -40 30 -13 20
-27 33 -30 29 -4 -3 -16 4 -27 17 -11 13 -20 18 -20 11 0 -18 180 -190 223
-212 52 -27 155 -27 227 0 66 26 136 73 132 90 -1 7 2 10 8 6 15 -9 112 76
105 92 -3 8 0 11 6 8 11 -8 24 7 69 78 30 47 34 61 10 32z m-138 -167 c-8 -8
-9 -4 -5 13 4 13 8 18 11 10 2 -7 -1 -18 -6 -23z m-172 -38 c0 -5 -4 -10 -10
-10 -5 0 -10 5 -10 10 0 6 5 10 10 10 6 0 10 -4 10 -10z m-40 -29 c0 -5 -6
-11 -13 -14 -8 -3 -14 1 -14 9 0 8 6 14 14 14 7 0 13 -4 13 -9z m-95 -20 c10
-17 -12 -21 -25 -6 -10 12 -10 15 3 15 9 0 18 -4 22 -9z m90 -41 c3 -6 -1 -7
-9 -4 -18 7 -21 14 -7 14 6 0 13 -4 16 -10z"/>
<path d="M2275 550 c3 -5 10 -10 16 -10 5 0 9 5 9 10 0 6 -7 10 -16 10 -8 0
-12 -4 -9 -10z"/>
<path d="M2470 550 c0 -5 5 -10 11 -10 5 0 7 5 4 10 -3 6 -8 10 -11 10 -2 0
-4 -4 -4 -10z"/>
<path d="M2060 496 c0 -2 8 -10 18 -17 15 -13 16 -12 3 4 -13 16 -21 21 -21
13z"/>
<path d="M2400 459 c0 -5 5 -7 10 -4 6 3 10 8 10 11 0 2 -4 4 -10 4 -5 0 -10
-5 -10 -11z"/>
<path d="M1891 5454 c0 -11 3 -14 6 -6 3 7 2 16 -1 19 -3 4 -6 -2 -5 -13z"/>
<path d="M1276 5054 c-5 -14 -4 -15 9 -4 17 14 19 20 6 20 -5 0 -12 -7 -15
-16z"/>
<path d="M141 5027 c-13 -21 -12 -21 5 -5 10 10 16 20 13 22 -3 3 -11 -5 -18
-17z"/>
<path d="M301 4994 c0 -11 3 -14 6 -6 3 7 2 16 -1 19 -3 4 -6 -2 -5 -13z"/>
<path d="M1252 4999 c2 -6 8 -10 13 -10 5 0 11 4 13 10 2 6 -4 11 -13 11 -9 0
-15 -5 -13 -11z"/>
<path d="M150 4980 c0 -6 12 -10 27 -10 29 0 24 12 -7 17 -11 2 -20 -2 -20 -7z"/>
<path d="M601 4924 c0 -11 3 -14 6 -6 3 7 2 16 -1 19 -3 4 -6 -2 -5 -13z"/>
<path d="M385 4912 c-14 -10 -17 -39 -5 -47 6 -3 7 0 4 9 -3 9 -2 16 4 16 5 0
12 7 16 15 6 16 -3 19 -19 7z"/>
<path d="M571 4898 c-1 -21 3 -26 15 -21 12 4 15 -1 12 -32 -2 -25 2 -39 11
-43 9 -3 11 1 6 17 -5 15 -2 21 9 21 20 0 20 -10 0 -38 -11 -16 -12 -27 -5
-39 9 -16 10 -16 11 3 0 11 9 29 20 39 11 10 20 13 20 7 0 -7 5 -12 12 -12 6
0 8 3 5 7 -4 3 -1 13 6 21 10 13 8 14 -15 10 -20 -4 -28 -1 -28 9 0 8 -8 13
-17 11 -12 -2 -19 4 -21 20 -2 12 -9 22 -17 22 -7 0 -16 6 -18 13 -3 6 -6 0
-6 -15z"/>
<path d="M515 4870 c-3 -5 3 -10 14 -10 11 0 23 -4 26 -10 8 -13 35 -13 35 1
0 5 -4 8 -9 4 -5 -3 -16 2 -24 10 -18 17 -33 19 -42 5z"/>
<path d="M462 4835 c0 -16 2 -22 5 -12 2 9 2 23 0 30 -3 6 -5 -1 -5 -18z"/>
<path d="M482 4848 c5 -15 28 -23 28 -10 0 5 -7 13 -16 16 -10 4 -14 1 -12 -6z"/>
<path d="M530 4830 c12 -8 11 -10 -7 -10 -13 0 -23 -5 -23 -11 0 -8 11 -9 31
-5 17 3 37 6 43 6 6 0 -2 7 -18 15 -32 17 -49 20 -26 5z"/>
<path d="M552 4785 c-9 -11 -9 -15 -1 -15 9 0 9 -3 0 -14 -9 -11 -9 -15 1 -19
9 -3 7 -9 -7 -20 -11 -8 -17 -19 -13 -22 8 -8 23 -3 58 22 13 10 21 12 16 6
-4 -7 -2 -13 3 -13 6 0 11 7 11 15 0 8 -5 15 -11 15 -5 0 -7 5 -4 10 3 6 1 10
-6 10 -6 0 -9 8 -6 20 6 24 -21 27 -41 5z"/>
<path d="M679 4773 c0 -10 -2 -28 -5 -40 -4 -26 11 -31 20 -8 3 8 1 15 -4 15
-6 0 -6 9 0 25 6 16 6 25 0 25 -6 0 -10 -8 -11 -17z"/>
<path d="M711 4764 c0 -11 3 -14 6 -6 3 7 2 16 -1 19 -3 4 -6 -2 -5 -13z"/>
<path d="M641 4624 c10 -13 10 -17 -2 -25 -8 -5 -9 -9 -3 -9 16 0 33 21 27 36
-3 8 -12 14 -20 14 -13 0 -13 -3 -2 -16z"/>
<path d="M665 4560 c-3 -5 1 -10 10 -10 9 0 13 5 10 10 -3 6 -8 10 -10 10 -2
0 -7 -4 -10 -10z"/>
<path d="M620 4480 c13 -8 13 -10 1 -10 -12 0 -12 -3 -3 -12 10 -10 15 -10 22
2 9 14 -4 30 -25 30 -5 0 -3 -5 5 -10z"/>
<path d="M881 4474 c0 -11 3 -14 6 -6 3 7 2 16 -1 19 -3 4 -6 -2 -5 -13z"/>
<path d="M48 4026 c-3 -14 -2 -26 2 -26 13 0 21 33 12 42 -6 6 -11 -1 -14 -16z"/>
<path d="M738 3963 c7 -3 16 -2 19 1 4 3 -2 6 -13 5 -11 0 -14 -3 -6 -6z"/>
<path d="M48 3953 c7 -3 16 -2 19 1 4 3 -2 6 -13 5 -11 0 -14 -3 -6 -6z"/>
<path d="M40 3931 c0 -17 18 -21 24 -6 3 9 0 15 -9 15 -8 0 -15 -4 -15 -9z"/>
<path d="M736 3875 c-3 -9 0 -15 9 -15 8 0 15 7 15 15 0 8 -4 15 -9 15 -5 0
-11 -7 -15 -15z"/>
<path d="M710 3680 c0 -5 5 -10 10 -10 6 0 10 5 10 10 0 6 -4 10 -10 10 -5 0
-10 -4 -10 -10z"/>
<path d="M727 3633 c-4 -3 -7 -11 -7 -17 0 -6 5 -5 12 2 6 6 9 14 7 17 -3 3
-9 2 -12 -2z"/>
<path d="M700 3529 c0 -11 4 -18 10 -14 5 3 7 12 3 20 -7 21 -13 19 -13 -6z"/>
<path d="M1036 3534 c-8 -21 -6 -23 17 -15 17 6 17 9 4 19 -12 10 -16 9 -21
-4z"/>
<path d="M3550 3545 c0 -5 5 -17 10 -25 5 -8 10 -10 10 -5 0 6 -5 17 -10 25
-5 8 -10 11 -10 5z"/>
<path d="M1012 3480 c0 -14 2 -19 5 -12 2 6 2 18 0 25 -3 6 -5 1 -5 -13z"/>
<path d="M740 3469 c0 -5 5 -7 10 -4 6 3 10 8 10 11 0 2 -4 4 -10 4 -5 0 -10
-5 -10 -11z"/>
<path d="M710 3440 c0 -11 5 -20 10 -20 6 0 10 9 10 20 0 11 -4 20 -10 20 -5
0 -10 -9 -10 -20z"/>
<path d="M770 3389 c0 -5 5 -7 10 -4 6 3 10 8 10 11 0 2 -4 4 -10 4 -5 0 -10
-5 -10 -11z"/>
<path d="M3426 3362 c27 -132 47 -213 55 -217 5 -4 6 26 3 72 -11 133 -17 156
-41 159 -15 3 -20 -1 -17 -14z"/>
<path d="M3321 3051 c-11 -7 -9 -11 8 -20 11 -7 21 -18 21 -26 0 -8 9 -15 21
-15 25 0 59 17 59 31 0 5 -10 3 -22 -5 -19 -12 -26 -12 -41 -2 -10 8 -15 20
-11 30 7 18 -12 21 -35 7z"/>
<path d="M3449 2967 c-33 -41 -47 -89 -23 -80 12 4 10 -1 -7 -20 -25 -30 -30
-33 -25 -14 1 6 1 9 -1 5 -3 -5 -12 -8 -21 -9 -11 0 -12 -2 -4 -6 6 -2 12 -12
12 -20 0 -13 3 -13 25 1 14 9 30 14 36 10 28 -17 76 35 85 91 11 75 -32 99
-77 42z"/>
<path d="M3355 2670 c-3 -5 1 -10 9 -10 9 0 16 5 16 10 0 6 -4 10 -9 10 -6 0
-13 -4 -16 -10z"/>
<path d="M3450 2644 c0 -8 5 -12 10 -9 6 4 8 11 5 16 -9 14 -15 11 -15 -7z"/>
<path d="M3390 2615 c0 -18 -26 -20 -33 -2 -4 9 -6 9 -6 -1 -1 -7 -12 -17 -26
-22 -31 -12 -33 -40 -4 -40 12 0 33 -12 46 -26 17 -18 19 -25 8 -20 -9 3 -24
6 -33 6 -14 0 -15 2 -2 10 8 5 11 12 7 16 -3 4 -13 1 -22 -6 -11 -9 -18 -10
-29 -1 -11 9 -15 7 -19 -8 -3 -15 2 -21 21 -26 l27 -7 -27 -16 c-18 -11 -26
-23 -24 -37 2 -11 8 -19 14 -18 16 4 25 -34 18 -72 -5 -24 -3 -34 9 -39 9 -3
15 0 15 8 0 8 7 16 15 20 9 3 12 12 8 23 -3 10 -2 14 3 10 4 -4 9 -27 10 -50
2 -31 0 -35 -5 -17 -8 31 -19 16 -17 -25 1 -25 7 -32 34 -40 46 -13 39 -28
-12 -24 -42 4 -45 2 -54 -27 -10 -33 4 -64 29 -64 8 0 21 -5 29 -11 12 -8 9
-9 -9 -4 -19 6 -23 4 -18 -8 3 -9 -1 -18 -11 -23 -13 -6 -11 -9 13 -14 l30 -6
-30 -20 c-31 -20 -43 -54 -19 -54 7 0 11 6 8 13 -5 14 52 50 96 60 14 4 31 18
37 33 l13 27 -23 -21 c-24 -22 -67 -30 -67 -12 0 6 11 10 24 10 20 0 23 4 18
22 -3 12 -7 17 -10 10 -2 -6 -11 -12 -19 -12 -12 0 -13 3 -4 13 6 8 8 16 5 19
-2 3 2 8 10 11 8 3 17 -1 21 -10 12 -34 31 20 30 89 0 38 2 68 5 68 10 0 32
61 27 74 -3 8 8 18 29 26 36 15 43 27 19 36 -8 4 -15 16 -16 28 0 11 -3 15 -6
8 -2 -6 -8 -10 -13 -7 -4 3 -10 -2 -14 -10 -3 -8 -1 -15 3 -15 5 0 11 -6 14
-14 5 -12 1 -13 -23 -4 -25 8 -28 13 -20 28 6 10 10 30 10 44 0 14 5 26 10 26
6 0 10 -8 10 -17 0 -13 3 -14 12 -5 18 18 26 15 31 -10 4 -20 4 -19 6 4 1 35
-26 68 -59 69 -23 1 -23 2 5 9 l30 8 -30 1 c-17 0 -36 -4 -43 -11 -9 -9 -12
-9 -13 3 -1 7 -2 20 -3 27 -1 13 -24 32 -38 32 -5 0 -8 -7 -8 -15z m90 -75 c0
-5 -9 -10 -19 -10 -11 0 -23 5 -26 10 -4 6 5 10 19 10 14 0 26 -4 26 -10z
m-21 -36 c2 -2 -3 -4 -12 -4 -8 0 -18 -8 -20 -17 -4 -14 -5 -13 -6 4 0 12 -7
24 -13 27 -7 3 1 3 17 -1 17 -3 32 -7 34 -9z m-114 -64 c-3 -5 -12 -10 -18
-10 -7 0 -6 4 3 10 19 12 23 12 15 0z m-8 -87 c-3 -10 -5 -2 -5 17 0 19 2 27
5 18 2 -10 2 -26 0 -35z m120 39 c22 18 26 2 7 -27 -17 -25 -19 -26 -31 -9
-17 23 -18 53 -1 36 8 -8 15 -9 25 0z m-44 -75 c-10 -6 -12 -17 -8 -39 6 -23
4 -29 -6 -26 -14 5 -15 29 -4 76 5 18 8 20 19 10 12 -11 12 -14 -1 -21z m-3
-136 c0 -5 -14 -11 -31 -15 -17 -3 -28 -10 -24 -16 3 -5 1 -10 -4 -10 -9 0 -9
22 -2 48 2 7 61 1 61 -7z"/>
<path d="M3450 2608 c0 -14 8 -18 38 -17 34 2 34 2 7 6 -16 3 -33 10 -37 16
-5 8 -8 6 -8 -5z"/>
<path d="M3703 2503 c9 -2 23 -2 30 0 6 3 -1 5 -18 5 -16 0 -22 -2 -12 -5z"/>
<path d="M3280 2381 c0 -6 5 -13 10 -16 6 -3 10 1 10 9 0 9 -4 16 -10 16 -5 0
-10 -4 -10 -9z"/>
<path d="M3638 2383 c6 -2 18 -2 25 0 6 3 1 5 -13 5 -14 0 -19 -2 -12 -5z"/>
<path d="M3580 2341 c0 -6 9 -9 20 -8 11 1 20 5 20 9 0 4 -9 8 -20 8 -11 0
-20 -4 -20 -9z"/>
<path d="M3868 2293 c7 -3 16 -2 19 1 4 3 -2 6 -13 5 -11 0 -14 -3 -6 -6z"/>
<path d="M3291 2278 c-1 -23 9 -48 21 -48 7 0 7 4 0 13 -5 6 -12 21 -15 32 -3
15 -5 16 -6 3z"/>
<path d="M3488 2240 c-8 -51 -6 -56 8 -32 5 9 7 31 4 47 -6 28 -6 27 -12 -15z"/>
<path d="M3656 2235 c-3 -8 -1 -15 4 -15 6 0 10 7 10 15 0 8 -2 15 -4 15 -2 0
-6 -7 -10 -15z"/>
<path d="M3688 2208 c6 -6 18 -8 28 -6 14 3 12 5 -9 10 -19 3 -25 2 -19 -4z"/>
<path d="M3525 2170 c-3 -6 1 -7 9 -4 18 7 21 14 7 14 -6 0 -13 -4 -16 -10z"/>
<path d="M3710 2170 c0 -5 6 -10 14 -10 8 0 18 5 21 10 3 6 -3 10 -14 10 -12
0 -21 -4 -21 -10z"/>
<path d="M3285 2120 c-3 -5 1 -10 10 -10 9 0 13 5 10 10 -3 6 -8 10 -10 10 -2
0 -7 -4 -10 -10z"/>
<path d="M3715 2110 c-3 -5 1 -10 10 -10 9 0 13 5 10 10 -3 6 -8 10 -10 10 -2
0 -7 -4 -10 -10z"/>
<path d="M3740 2069 c0 -5 9 -9 20 -9 11 0 20 2 20 4 0 2 -9 6 -20 9 -11 3
-20 1 -20 -4z"/>
<path d="M3280 1960 c0 -5 5 -10 10 -10 6 0 10 5 10 10 0 6 -4 10 -10 10 -5 0
-10 -4 -10 -10z"/>
<path d="M3388 1953 c7 -3 16 -2 19 1 4 3 -2 6 -13 5 -11 0 -14 -3 -6 -6z"/>
<path d="M3320 1942 c0 -5 7 -13 16 -16 10 -4 14 -1 12 6 -5 15 -28 23 -28 10z"/>
<path d="M3440 1935 c0 -8 2 -15 4 -15 2 0 6 7 10 15 3 8 1 15 -4 15 -6 0 -10
-7 -10 -15z"/>
<path d="M3350 1896 c0 -10 13 -14 45 -14 31 1 45 5 45 15 0 9 -14 13 -45 13
-32 0 -45 -4 -45 -14z"/>
<path d="M3632 1880 c0 -14 2 -19 5 -12 2 6 2 18 0 25 -3 6 -5 1 -5 -13z"/>
<path d="M3631 1824 c0 -11 3 -14 6 -6 3 7 2 16 -1 19 -3 4 -6 -2 -5 -13z"/>
<path d="M3465 1800 c-3 -5 -1 -10 5 -10 6 0 8 -4 5 -10 -3 -5 3 -10 14 -10
11 0 23 5 26 10 3 6 -1 10 -9 10 -9 0 -16 5 -16 10 0 6 -4 10 -9 10 -6 0 -13
-4 -16 -10z"/>
<path d="M3605 1790 c-3 -5 -1 -10 4 -10 6 0 11 5 11 10 0 6 -2 10 -4 10 -3 0
-8 -4 -11 -10z"/>
<path d="M3631 1764 c-1 -17 6 -23 28 -26 16 -2 37 -1 47 3 17 7 17 8 2 8 -10
1 -18 8 -18 16 0 8 -4 15 -10 15 -5 0 -10 -7 -10 -15 0 -21 -28 -19 -33 3 -4
13 -5 13 -6 -4z"/>
<path d="M3610 1690 c-9 -6 -10 -10 -3 -10 6 0 15 5 18 10 8 12 4 12 -15 0z"/>
<path d="M4320 1329 c-84 -33 -171 -141 -215 -264 -30 -86 -31 -119 -5 -138
12 -8 30 -32 40 -53 18 -34 20 -59 20 -226 0 -103 3 -188 8 -188 4 0 5 24 3
52 l-3 53 25 -27 c23 -24 26 -25 41 -10 15 15 16 15 16 -6 0 -13 -4 -21 -9
-17 -19 11 -25 -65 -7 -93 10 -17 -13 -15 -31 3 -38 38 -39 -4 -3 -185 10 -52
22 -116 25 -142 l6 -48 150 0 149 0 0 645 c0 355 -2 645 -4 645 -2 0 -23 -7
-46 -15 -54 -19 -157 -11 -139 11 13 16 13 16 -21 3z"/>
</g>
</svg>
